PathFileType	4	(X/Y/Z)	5_coords_data.trc
DataRate	CameraRate	NumFrames	NumMarkers	Units	OrigDataRate	OrigDataStartFrame	OrigNumFrames
30.0	30.0	4	21	m	30.0	10	67
Frame#	Time	THUMB_TIP	THUMB_IP	THUMB_MCP	THUMB_CMC	INDEX_TIP	INDEX_DIP	INDEX_PIP	INDEX_MCP	MIDDLE_TIP	MIDDLE_DIP	MIDDLE_PIP	MIDDLE_MCP	RING_TIP	RING_DIP	RING_PIP	RING_MCP	PINKY_TIP	PINKY_DIP	PINKY_PIP	PINKY_MCP	WRIST
X1	Y1	Z1	X2	Y2	Z2	X3	Y3	Z3	X4	Y4	Z4	X5	Y5	Z5	X6	Y6	Z6	X7	Y7	Z7	X8	Y8	Z8	X9	Y9	Z9	X10	Y10	Z10	X11	Y11	Z11	X12	Y12	Z12	X13	Y13	Z13	X14	Y14	Z14	X15	Y15	Z15	X16	Y16	Z16	X17	Y17	Z17	X18	Y18	Z18	X19	Y19	Z19	X20	Y20	Z20	X21	Y21	Z21
8	0.2999999999999987	0.4821036380649568	-0.033319011679219024	-0.17167316466507165	0.4822147246413734	-0.03346681376142602	-0.14869565796140516	0.464994219829601	-0.02834009435953677	-0.12327930570145221	0.46982155814524573	-0.029136739261219624	-0.07894024660355375	0.5742709735374526	0.029351204374679862	-0.16543494832071148	0.5594155425919894	0.02454861157004451	-0.15625609905855248	0.538951575631287	0.018718558130634277	-0.14286780692979653	0.5073065184736891	0.004679957993532491	-0.11806570706541164	0.5987469561741809	0.037197502275016836	-0.13649331137298065	0.5831378962678276	0.029653969850584216	-0.13125381069052944	0.5574287640996194	0.020755952424492574	-0.12080032519321449	0.51928051171266	0.00865617810435415	-0.10093945355517803	0.6034618537151791	0.03693872804952636	-0.10699927931716186	0.5877004713492848	0.029948057185731902	-0.10173531248689305	0.5650997873434505	0.02238738100070581	-0.09450860942853992	0.5293028721592914	0.006616624505957458	-0.08428193172356258	0.5997154573629659	0.027506485328806285	-0.06629059524834555	0.5839581588061351	0.020826763455572328	-0.06599250484740352	0.564329549881013	0.013375240687554024	-0.06605987770784871	0.5313253545624285	-0.0011626973478566782	-0.06656475398109185	0.4622830810018609	-0.023011742144276925	-0.051989820119430985
9	0.33333333333333187	0.4825092386556308	-0.033394543486214845	-0.1715614503729465	0.4824645147197688	-0.033496719707098666	-0.1485834704837254	0.4650636739340055	-0.028374467333975972	-0.12328933538140274	0.4698150720813915	-0.029139151960664855	-0.0789415116121723	0.5742319102207043	0.02941255929108777	-0.16543194365879849	0.5593716957541166	0.02461616466064276	-0.15625759765725405	0.5389095515738073	0.018794253357151347	-0.1428629779419163	0.5072537847691041	0.004788050968005164	-0.11805622852486186	0.5987468922970807	0.03706265722005142	-0.13656682108205348	0.5831207394029008	0.02956593806007768	-0.13131110537777554	0.5573976650531894	0.020740691254116705	-0.12083026501008043	0.519234634666506	0.008758551296086936	-0.10092651273240016	0.6034951414448195	0.03686376858282625	-0.10699063179454321	0.5877140501132387	0.02992283715495825	-0.10171989870530967	0.5650948175015377	0.02242196874379998	-0.09448890512653707	0.5292680350093548	0.0067228964275244385	-0.0842565242371171	0.5997303108683584	0.02749477127862543	-0.0662763593986195	0.5839626993856921	0.020839578420621008	-0.0659749690297326	0.5643196645971591	0.013426115077709966	-0.0660363250383354	0.531303082682452	-0.0010833248469923618	-0.06655103149923669	0.462283081001861	-0.023011742144276925	-0.05198982011943096
10	0.3666666666666651	0.48293438231533714	-0.033460523781000506	-0.17144563062655624	0.48271861424924223	-0.03351870435789006	-0.1484684667641008	0.4651402420821953	-0.028390717065632454	-0.12329855261471934	0.46981199091811066	-0.029140716072909467	-0.07894201685838229	0.5742045475923859	0.029482377072681643	-0.16541604761292034	0.5593392480265234	0.024687982274542497	-0.15624889716489454	0.5388770290288685	0.018869732840354092	-0.14285280071056933	0.5072154737405173	0.004884282518462957	-0.11804173080182484	0.5987577457767652	0.0369301582146041	-0.13661878525383367	0.5831137797772625	0.029479645221074824	-0.13135037145652656	0.5573787784504414	0.020719720742850778	-0.12084404099131035	0.5191949588266934	0.008857022738551823	-0.10090863941522249	0.6035359755380627	0.03678533601185108	-0.10696387320154307	0.5877340409735663	0.029894635646533163	-0.1016896801357951	0.5650960994821166	0.022451897857858727	-0.09445716755448985	0.5292364182777374	0.0068277764722672885	-0.08422530903080985	0.5997581344484197	0.027451999092968582	-0.06624443852652825	0.5839795193112618	0.02082290718763713	-0.06594369800029268	0.5643209662885135	0.013450679854260739	-0.06600349931144173	0.5312865561488312	-0.0010176866329177914	-0.06653034740714248	0.4622830810018608	-0.023011742144276925	-0.051989820119430985
11	0.39999999999999825	0.48336238323671166	-0.03355115917702123	-0.17131550820518607	0.48297446712845127	-0.033560127556527264	-0.1483405339797137	0.465202919699079	-0.028420272984051365	-0.12330907383573936	0.46979745007509066	-0.029149290910313597	-0.0789441234414574	0.5741810985618508	0.029549262319460867	-0.1653974682103866	0.5593107656565555	0.024755990156619556	-0.15623789719103082	0.5388481240835281	0.01894000549510999	-0.1428414627672409	0.5071791555626018	0.004977076771011446	-0.11802716954203857	0.5987800426216362	0.03678954902124487	-0.13665249274354827	0.583117087493687	0.029386678277662504	-0.13137335063391936	0.5573695999384961	0.020688941008803252	-0.12084596724595484	0.5191578574591876	0.00895467838952324	-0.1008880680960747	0.6035884858169692	0.03669484440955051	-0.10691705776834642	0.5877655796075882	0.029854738528263813	-0.10163988138111785	0.5651057979331415	0.022475303385671608	-0.0944108973278302	0.5292078001918361	0.0069358048630664415	-0.08418453053257058	0.5998023216838656	0.027377102213283266	-0.0661907146579741	0.5840092140600142	0.02078253399393004	-0.06589168024233122	0.5643337883464891	0.01345551485530705	-0.0659582575193215	0.5312741908695575	-0.0009548845138888096	-0.06649384661886151	0.4622830810018608	-0.023011742144276925	-0.05198982011943096
